<svg version="1.1" xmlns="http://www.w3.org/2000/svg" viewBox="0 0 250 250"><desc>Created with Snap</desc><defs></defs><g transform="matrix(0.1721,0,0,0.1721,88.9084,127.1939)"><rect x="-464.7" y="-739.2" width="1348.9" height="1452.9" fill="#f2d398" style=""></rect><g><g transform="matrix(0.5,0,0,-0.5,0,0)"><path d="M299 807Q299 787 290 767Q281 747 266 731Q252 716 233 706Q215 696 195 696Q169 696 154 713Q140 730 140 756Q140 776 149 795Q158 815 172 830Q187 845 205 854Q224 864 244 864Q270 864 284 848Q299 832 299 807ZM324 -334Q324 -412 303 -492Q283 -572 241 -639Q200 -705 137 -751Q74 -797 -12 -809Q-21 -811 -29 -812Q-37 -813 -47 -813Q-102 -813 -151 -791Q-200 -769 -237 -732Q-273 -694 -294 -645Q-315 -595 -315 -541Q-315 -481 -291 -426Q-266 -371 -226 -325Q-186 -278 -136 -243Q-85 -207 -32 -186L-26 -199Q-123 -251 -176 -342Q-229 -433 -229 -543Q-229 -588 -217 -631Q-204 -673 -179 -705Q-154 -737 -117 -757Q-79 -776 -30 -776Q37 -776 82 -739Q128 -702 155 -646Q182 -590 193 -525Q205 -459 205 -403Q205 -327 190 -254Q176 -180 159 -106Q142 -32 127 42Q113 117 113 195Q113 247 120 302Q127 357 145 407Q164 457 196 499Q228 541 279 567L287 563Q263 538 247 507Q231 477 221 443Q212 410 208 375Q205 341 205 307Q205 217 223 137Q242 58 264 -18Q287 -94 305 -171Q324 -248 324 -334ZM1145 147L1154 143Q1136 103 1108 71Q1081 39 1049 16Q1017 -6 983 -19Q949 -31 918 -31Q860 -31 820 -11Q780 9 755 43Q730 77 719 123Q708 169 708 221Q708 261 714 304Q720 347 731 387Q733 393 735 401Q737 410 737 416Q737 421 731 424Q714 430 695 435Q676 441 657 448Q639 455 622 464Q606 473 594 487Q593 427 574 365Q555 304 523 247Q492 191 450 142Q408 93 361 57L351 67Q380 99 404 143Q428 187 445 235Q462 283 471 332Q481 381 481 424Q481 446 477 465Q473 485 468 503Q464 521 460 537Q456 554 456 571Q456 599 474 615Q492 631 520 631Q535 631 543 622Q551 614 557 602Q563 590 571 577Q579 564 594 555Q613 544 642 539Q671 534 703 530Q735 526 767 522Q799 518 824 508Q850 499 866 482Q882 466 882 438Q882 424 879 410Q877 397 872 385Q860 343 851 299Q843 256 843 213Q843 176 848 145Q854 115 869 93Q884 71 909 59Q934 47 973 47Q1029 47 1071 74Q1113 102 1145 147Z" fill="#292929" style=""></path></g></g></g></svg>